<?xml version="1.0" encoding="utf-8"?>
<!-- Generator: Adobe Illustrator 26.0.3, SVG Export Plug-In . SVG Version: 6.00 Build 0)  -->
<svg version="1.1" id="_x32_" xmlns="http://www.w3.org/2000/svg" xmlns:xlink="http://www.w3.org/1999/xlink" x="0px" y="0px"
	 viewBox="0 0 512 512" style="enable-background:new 0 0 512 512;" xml:space="preserve">
<style type="text/css">
	.st0{fill:#EAEAEA;}
	.st1{fill:#E8E8E8;}
	.st2{font-family:'HGPMinchoE';}
	.st3{font-size:300px;}
</style>
<g>
	<rect y="477" class="st0" width="512" height="8"/>
	<path class="st0" d="M112.7,387v60.8h78.6v-79.8C165.8,375.7,139.6,382.1,112.7,387z"/>
	<path class="st0" d="M8.7,397.9v49.9h78.6V391C61.6,394.7,35.4,397,8.7,397.9z"/>
	<path class="st0" d="M216.4,359.7v88h79.1V326.5C270.2,339.1,243.8,350.2,216.4,359.7z"/>
	<path class="st0" d="M320.3,313.5v134.3h79.4V261.5C374.9,280.6,348.3,298,320.3,313.5z"/>
	<path class="st0" d="M424.2,241.7v206.1h79.5V159C480.4,188.8,453.7,216.5,424.2,241.7z"/>
	<path class="st0" d="M413.1,57.7l27.7,23.2C353,190.4,185.4,329.1,0,349.8v22.1c183.9-6.5,381.1-132.5,483.5-255.2l28.5,23.8V27
		L413.1,57.7z"/>
</g>
<path d="M-298,236"/>
<text transform="matrix(1 0 0 1 20.5156 256)" class="st1 st2 st3">II</text>
</svg>
