<!--?xml version="1.0" encoding="utf-8"?-->
<!-- Generator: Adobe Illustrator 18.1.1, SVG Export Plug-In . SVG Version: 6.00 Build 0)  -->

<svg version="1.1" id="_x32_" xmlns="http://www.w3.org/2000/svg" xmlns:xlink="http://www.w3.org/1999/xlink" x="0px" y="0px" viewBox="0 0 512 512" style="width: 256px; height: 256px; opacity: 1;" xml:space="preserve">
<style type="text/css">
	.st0{fill:#4B4B4B;}
</style>
<g>
	<polygon class="st0" points="189.725,222.712 231.636,261.866 250.511,241.652 263.675,253.948 277.897,238.714 213.912,178.926 
		213.912,178.934 201.739,167.556 187.503,182.791 199.676,194.161 199.676,194.168 200.66,195.088 181.785,215.287 	" style="fill: rgb(234, 234, 234);"></polygon>
	<path class="st0" d="M330.229,182.704c7.259,9.77,18.846,16.132,31.952,16.132c21.973,0,39.798-17.811,39.798-39.798
		c0-14.062-7.324-26.416-18.353-33.486l50.82-54.396L421.288,58.86l8.533-9.126L379.963,3.155l-8.525,9.134L358.288,0
		L209.497,159.248l76.165,71.157L330.229,182.704z M362.181,144.506c0.797,0,1.57,0.116,2.345,0.238
		c0.326,0.058,0.666,0.116,0.984,0.188c6.413,1.512,11.204,7.238,11.204,14.105c0,8.026-6.507,14.533-14.533,14.533
		c-6.542,0-12.014-4.357-13.838-10.299c-0.187-0.615-0.34-1.252-0.456-1.897c-0.13-0.767-0.239-1.534-0.239-2.337
		C347.649,151.02,354.155,144.506,362.181,144.506z" style="fill: rgb(234, 234, 234);"></path>
	<polygon class="st0" points="226.468,330.076 80.341,289.671 75.289,307.938 221.417,348.336 	" style="fill: rgb(234, 234, 234);"></polygon>
	<path class="st0" d="M334.021,444.259c-21.907,9.148-45.913,14.214-71.098,14.214c-18.035,0-35.571-2.591-52.209-7.44
		c-23.949,14.127-43.17,35.412-54.627,60.967h245.625C388.236,481.943,364.041,457.785,334.021,444.259z" style="fill: rgb(234, 234, 234);"></path>
	<path class="st0" d="M436.711,273.322c0-34.616-10.161-66.843-27.61-93.932c-5.066,11.652-14.366,21.039-25.938,26.264
		c9.06,18.093,14.228,38.451,14.228,60.055c0,74.269-52.26,129.504-116.361,129.504c-41.512,0-72.386-16.125-93.823-44.278
		l-89.851-24.839c22.349,70.166,87.998,121.007,165.567,121.007C358.918,447.103,436.711,369.303,436.711,273.322z" style="fill: rgb(234, 234, 234);"></path>
</g>
</svg>
