<!--?xml version="1.0" encoding="utf-8"?-->
<!-- Generator: Adobe Illustrator 18.1.1, SVG Export Plug-In . SVG Version: 6.00 Build 0)  -->

<svg version="1.1" id="_x32_" xmlns="http://www.w3.org/2000/svg" xmlns:xlink="http://www.w3.org/1999/xlink" x="0px" y="0px" viewBox="0 0 512 512" style="width: 256px; height: 256px; opacity: 1;" xml:space="preserve">
<style type="text/css">
	.st0{fill:#4B4B4B;}
</style>
<g>
	<path class="st0" d="M47.294,422.846c-10.908-10.924-17.615-25.87-17.633-42.462v-61.795H0v61.795
		c0.017,49.545,40.23,89.739,89.765,89.774h40.532v-29.67H89.765C73.164,440.48,58.236,433.771,47.294,422.846z" style="fill: rgb(234, 234, 234);"></path>
	<path class="st0" d="M85.931,235.914c21.636,0,39.144-17.508,39.144-39.154c0-21.609-17.507-39.153-39.144-39.153
		c-21.619,0-39.154,17.544-39.154,39.153C46.777,218.406,64.312,235.914,85.931,235.914z" style="fill: rgb(234, 234, 234);"></path>
	<path class="st0" d="M179.165,369.308h-54.927v-81.758c0-21.165-17.134-38.318-38.308-38.318
		c-21.147,0-38.299,17.152-38.299,38.318v93.146c0,21.155,17.143,38.308,38.299,38.308c2.873,0,70.024-0.195,70.024-0.195
		l3.674,56.688c0.258,11.61,9.884,20.818,21.494,20.568c11.628-0.258,20.826-9.884,20.56-21.494l2.233-80.512
		C203.915,380.375,192.839,369.308,179.165,369.308z" style="fill: rgb(234, 234, 234);"></path>
	<path class="st0" d="M482.339,318.589v61.795c-0.017,16.592-6.725,31.538-17.632,42.462
		c-10.943,10.925-25.871,17.634-42.462,17.642h-40.541v29.67h40.541c49.526-0.036,89.73-40.23,89.756-89.774v-61.795H482.339z" style="fill: rgb(234, 234, 234);"></path>
	<path class="st0" d="M426.069,235.914c21.618,0,39.153-17.508,39.153-39.154c0-21.609-17.535-39.153-39.153-39.153
		c-21.636,0-39.145,17.544-39.145,39.153C386.924,218.406,404.433,235.914,426.069,235.914z" style="fill: rgb(234, 234, 234);"></path>
	<path class="st0" d="M464.378,380.695v-93.146c0-21.165-17.17-38.318-38.308-38.318c-21.173,0-38.308,17.152-38.308,38.318v81.758
		h-54.927c-13.674,0-24.75,11.067-24.75,24.75l2.233,80.512c-0.267,11.61,8.932,21.236,20.56,21.494
		c11.61,0.25,21.235-8.959,21.493-20.568l3.675-56.688c0,0,67.151,0.195,70.024,0.195
		C447.224,419.003,464.378,401.851,464.378,380.695z" style="fill: rgb(234, 234, 234);"></path>
	<rect x="153.651" y="318.963" class="st0" width="212.384" height="36.146" style="fill: rgb(234, 234, 234);"></rect>
	<rect x="244.047" y="374.511" class="st0" width="24.714" height="87.497" style="fill: rgb(234, 234, 234);"></rect>
	<path class="st0" d="M359.59,159.404c0,7.286-2.353,14.137-6.677,20.294c-4.319,6.165-10.671,11.556-18.464,15.56l-5.686,2.918
		l7.376,16.486c-22.37-3.87-43.13-11.148-53.615-15.222l-0.208-0.089l-0.222-0.062c-14.061-4.422-25.048-13.086-30.626-23.335
		l-11.85,6.486c7.575,13.753,21.32,24.198,38.028,29.554v0.018c12.976,5.026,40.252,14.581,68.908,17.802l11.712,1.29
		l-12.108-27.081c7.109-4.475,13.211-10.026,17.793-16.557c5.743-8.149,9.146-17.792,9.133-28.06
		c0.013-12.775-5.266-24.554-13.772-33.77c-8.514-9.252-20.249-16.138-33.713-19.822l-3.555,13.015
		c11.254,3.052,20.782,8.781,27.33,15.934C355.956,141.949,359.59,150.339,359.59,159.404z" style="fill: rgb(234, 234, 234);"></path>
	<path class="st0" d="M161.724,156.362l-16.228,36.28l11.722-1.299c40.461-4.52,79.209-18.078,97.602-25.204
		c17.478-5.596,32.561-15.142,43.419-27.552c10.952-12.49,17.579-28.015,17.571-44.803c0.008-10.978-2.834-21.458-7.865-30.862
		c-7.548-14.118-19.968-25.844-35.337-34.046c-15.356-8.211-33.713-12.944-53.428-12.944c-26.258,0.018-50.153,8.389-67.742,22.286
		c-8.786,6.948-15.987,15.293-21.031,24.705c-5.022,9.404-7.851,19.884-7.851,30.862c-0.014,14.003,4.626,27.162,12.499,38.38
		C141.813,141.753,150.96,149.956,161.724,156.362z M142.316,69.283c6.081-11.406,16.464-21.396,29.799-28.522
		c13.318-7.117,29.536-11.352,47.067-11.334c23.372-0.018,44.411,7.508,59.384,19.358c7.477,5.925,13.429,12.891,17.486,20.498
		c4.066,7.615,6.268,15.844,6.268,24.5c-0.014,13.194-5.115,25.497-14.225,35.924c-9.097,10.409-22.206,18.825-37.748,23.709
		l-0.196,0.063l-0.208,0.088c-15.929,6.175-48.139,17.437-82.368,22.758l11.605-25.934l-5.698-2.918
		c-11.498-5.89-20.911-13.87-27.379-23.087c-6.476-9.226-10.053-19.572-10.066-30.604C136.048,85.127,138.238,76.899,142.316,69.283
		z" style="fill: rgb(234, 234, 234);"></path>
</g>
</svg>
