<?xml version="1.0" encoding="utf-8"?>
<!-- Generator: Adobe Illustrator 26.0.3, SVG Export Plug-In . SVG Version: 6.00 Build 0)  -->
<svg version="1.1" id="_x32_" xmlns="http://www.w3.org/2000/svg" xmlns:xlink="http://www.w3.org/1999/xlink" x="0px" y="0px"
	 viewBox="0 0 512 512" style="enable-background:new 0 0 512 512;" xml:space="preserve">
<style type="text/css">
	.st0{fill:#EAEAEA;}
</style>
<path class="st0" d="M508,418.4c-8.7-5.7-48.7-49.2-60-46.7c0,0-384,0-384,0c-4.7,0-9.1,1.5-12.2,4.3c-2.9,4.4-54.9,44-51.8,50.7
	c0,0,0,14.8,0,14.8c0,3.5,3.6,6.2,8.1,6.2c0,0,495.9,0,495.9,0c4.5,0,8.1-2.8,8.1-6.2C511.4,435.1,514.2,422.9,508,418.4z
	 M201.1,423.4l13.8-18.7h87.7l13.8,18.7H201.1z"/>
<g>
	<g>
		<path class="st0" d="M355.5,105.3c0.3,0.1,0.6,0.1,0.9,0.1c1.2,0,2.4-0.8,2.8-2c0.5-1.5-0.3-3.2-1.9-3.7c-1.5-0.5-3.2,0.4-3.7,1.9
			C353.1,103.2,353.9,104.8,355.5,105.3z"/>
		<path class="st0" d="M378.5,74.6c0.6,0,1.2-0.2,1.7-0.6h0c1.3-0.9,1.6-2.8,0.6-4c-1-1.3-2.8-1.6-4.1-0.6c-1.3,1-1.6,2.8-0.6,4.1
			C376.7,74.2,377.6,74.6,378.5,74.6z"/>
		<path class="st0" d="M414.6,62.6C414.6,62.6,414.6,62.6,414.6,62.6c1.6,0,2.9-1.3,2.9-2.9c0-1.6-1.3-2.9-2.9-2.9
			c-1.6,0-2.9,1.3-2.9,2.9C411.7,61.3,413,62.6,414.6,62.6z"/>
		<path class="st0" d="M450.8,74.2c0.9,0,1.8-0.4,2.3-1.2c1-1.3,0.6-3.1-0.7-4c-1.3-1-3.1-0.6-4,0.7c-0.9,1.3-0.6,3.1,0.7,4
			C449.6,74,450.2,74.2,450.8,74.2z"/>
		<path class="st0" d="M355.7,137.8c-1.5,0.5-2.3,2.1-1.8,3.7c0,0,0,0,0,0c0.4,1.2,1.5,2,2.8,2c0.3,0,0.6,0,0.9-0.1
			c1.5-0.5,2.3-2.1,1.8-3.7C358.8,138.1,357.2,137.3,355.7,137.8z"/>
		<path class="st0" d="M376.7,169.5c-0.9,1.3-0.6,3.1,0.7,4.1c0.5,0.3,1.1,0.5,1.7,0.5c0.9,0,1.8-0.4,2.4-1.2
			c0.9-1.3,0.6-3.1-0.7-4.1C379.4,167.9,377.6,168.2,376.7,169.5z"/>
		<path class="st0" d="M474.4,137.3c-1.5-0.5-3.2,0.3-3.7,1.9c-0.5,1.5,0.3,3.2,1.9,3.6c0.3,0.1,0.6,0.1,0.9,0.1
			c1.2,0,2.3-0.8,2.8-2C476.8,139.4,475.9,137.8,474.4,137.3z"/>
		<path class="st0" d="M473.4,104.9c0.3,0,0.6-0.1,0.9-0.1c1.5-0.5,2.3-2.1,1.9-3.7c0-0.1-0.1-0.1-0.1-0.2v0
			c-0.5-1.5-2.1-2.3-3.7-1.8c-1.5,0.5-2.3,2.1-1.9,3.7c0,0.1,0.1,0.1,0.1,0.2c0,0,0,0,0,0C471,104.2,472.2,104.9,473.4,104.9z"/>
		<path class="st0" d="M449.6,168.5c-1.3,1-1.6,2.8-0.6,4.1c0.5,0.8,1.4,1.2,2.3,1.2c0.6,0,1.2-0.2,1.7-0.6c1.3-0.9,1.6-2.8,0.6-4
			C452.7,167.8,450.9,167.6,449.6,168.5z"/>
		<path class="st0" d="M415.2,179.8c-1.6,0-2.9,1.3-2.9,2.9c0,1.6,1.3,2.9,2.9,2.9c1.6,0,2.9-1.3,2.9-2.9
			C418.1,181.1,416.8,179.8,415.2,179.8z"/>
		<path class="st0" d="M415,28.5c-51.2,0-92.8,41.6-92.8,92.8c0,51.2,41.6,92.8,92.8,92.8s92.8-41.6,92.8-92.8
			C507.7,70.1,466.1,28.5,415,28.5z M415,191.9c-39,0-70.7-31.7-70.7-70.7c0-39,31.7-70.7,70.7-70.7s70.7,31.7,70.7,70.7
			C485.6,160.2,453.9,191.9,415,191.9z"/>
		<polygon class="st0" points="422.5,75.8 407.3,75.8 407.3,118.5 407.3,126.1 407.3,133.6 457.6,133.6 457.6,118.5 422.5,118.5 		
			"/>
	</g>
</g>
<path class="st0" d="M435.9,221.5v80.1H76.1V97.9H310v-36H61.9c-14.8,0-26.8,12-26.8,26.8v228.4c0,14.8,12,26.8,26.8,26.8h388.1
	c14.8,0,26.8-12,26.8-26.8v-95.6H435.9z"/>
</svg>
