<!--?xml version="1.0" encoding="utf-8"?-->
<!-- Generator: Adobe Illustrator 18.1.1, SVG Export Plug-In . SVG Version: 6.00 Build 0)  -->

<svg version="1.1" id="_x32_" xmlns="http://www.w3.org/2000/svg" xmlns:xlink="http://www.w3.org/1999/xlink" x="0px" y="0px" viewBox="0 0 512 512" style="enable-background:new 0 0 512 512;" xml:space="preserve">
<style type="text/css">
	.st0{fill:#4B4B4B;}
</style>
<g>
	<path class="st0" d="M510.168,392.022l-45.594-57.326V93.611c0-11.662-9.458-21.12-21.12-21.12H68.546
		c-11.662,0-21.115,9.458-21.115,21.12v241.085L1.837,392.022C0.648,393.517,0,395.367,0,397.287v25.373
		c0,9.311,7.542,16.849,16.849,16.849h478.302c9.31,0,16.849-7.538,16.849-16.849v-25.373
		C512,395.367,511.36,393.517,510.168,392.022z M77.226,102.291h357.548v202.606H77.226V102.291z M304.121,419.47h-96.242v-25.478
		h96.242V419.47z" style="fill: rgb(234, 234, 234);"></path>
	<path class="st0" d="M204.404,167.431c-0.117,0-0.225,0.036-0.31,0.096l-57.525,39.266c-0.152,0.112-0.242,0.277-0.242,0.467
		v10.556c0,0.189,0.09,0.363,0.242,0.458l57.525,39.266c0.086,0.069,0.194,0.104,0.31,0.104c0.087,0,0.177-0.026,0.255-0.069
		c0.181-0.096,0.298-0.286,0.298-0.493v-16.824c0-0.172-0.09-0.354-0.242-0.458l-39.94-27.267l39.94-27.258
		c0.152-0.112,0.242-0.277,0.242-0.467v-16.815c0-0.207-0.117-0.406-0.298-0.492C204.581,167.449,204.49,167.431,204.404,167.431z" style="fill: rgb(234, 234, 234);"></path>
	<path class="st0" d="M306.07,167.527c-0.091-0.06-0.195-0.096-0.312-0.096c-0.09,0-0.177,0.018-0.259,0.07
		c-0.177,0.086-0.294,0.285-0.294,0.492v16.824c0,0.182,0.091,0.355,0.242,0.458l39.94,27.258l-39.94,27.267
		c-0.151,0.104-0.242,0.285-0.242,0.466v16.815c0,0.207,0.117,0.397,0.294,0.493c0.082,0.043,0.169,0.069,0.259,0.069
		c0.117,0,0.22-0.034,0.312-0.104l57.52-39.266c0.164-0.095,0.25-0.268,0.25-0.458v-10.556c0-0.19-0.086-0.355-0.25-0.467
		L306.07,167.527z" style="fill: rgb(234, 234, 234);"></path>
	<path class="st0" d="M281.375,158.224h-16.08c-0.237,0-0.449,0.147-0.522,0.372L228.26,264.473
		c-0.056,0.164-0.026,0.354,0.074,0.492c0.109,0.147,0.277,0.242,0.454,0.242h16.08c0.238,0,0.45-0.156,0.523-0.38l36.508-105.859
		c0.061-0.172,0.03-0.363-0.069-0.51C281.721,158.311,281.553,158.224,281.375,158.224z" style="fill: rgb(234, 234, 234);"></path>
</g>
</svg>
