<!--?xml version="1.0" encoding="utf-8"?-->
<!-- Generator: Adobe Illustrator 18.1.1, SVG Export Plug-In . SVG Version: 6.00 Build 0)  -->

<svg version="1.1" id="_x32_" xmlns="http://www.w3.org/2000/svg" xmlns:xlink="http://www.w3.org/1999/xlink" x="0px" y="0px" viewBox="0 0 512 512" style="enable-background:new 0 0 512 512;" xml:space="preserve">
<style type="text/css">
	.st0{fill:#4B4B4B;}
</style>
<g>
	<path class="st0" d="M500.609,322.275l-57.428-162.834c0.135,0.008,0.279,0.025,0.406,0.025
		c39.538,0.677,49.422-20.58,54.566-27.94c7.118-10.171-7.91-20.343-15.816-13.558c-7.906,6.775-29.264,21.011-70.386,2.024
		C374.874,102.875,309.87,73.098,271.92,67.399v-39c0-8.799-7.127-15.921-15.918-15.921c-8.795,0-15.922,7.122-15.922,15.921v39
		c-37.95,5.699-102.953,35.476-140.031,52.593c-41.121,18.987-62.48,4.751-70.386-2.024c-7.906-6.784-22.935,3.388-15.816,13.558
		c5.145,7.36,15.028,28.617,54.566,27.94c0.132,0,0.276-0.017,0.402-0.025L11.391,322.275H0
		c11.497,38.025,46.804,65.736,88.595,65.736c41.786,0,77.093-27.711,88.59-65.736h-11.386l-60.355-171.134
		c37.183-11.467,89.569-31.056,134.636-34.072v24.23h-8.507v267.748H218.37v23.858c-8.715,0-17.569,0-24.874,0
		c-23.354,0-22.663,32.969-22.663,32.969c-19.233,0-28.85,15.101-28.85,33.648h228.033c0-18.546-9.616-33.648-28.845-33.648
		c0,0,0.686-32.969-22.668-32.969c-7.305,0-16.159,0-24.874,0v-23.858h-13.203V141.3h-8.507v-24.23
		c45.072,3.015,97.457,22.604,134.64,34.072l-60.358,171.134h-11.387c11.496,38.025,46.804,65.736,88.59,65.736
		c41.79,0,77.098-27.711,88.594-65.736H500.609z M141.243,322.275H35.948L88.595,173L141.243,322.275z M370.758,322.275L423.41,173
		l52.643,149.275H370.758z" style="fill: rgb(234, 234, 234);"></path>
</g>
</svg>
