<!--?xml version="1.0" encoding="utf-8"?-->
<!-- Generator: Adobe Illustrator 18.1.1, SVG Export Plug-In . SVG Version: 6.00 Build 0)  -->

<svg version="1.1" id="_x32_" xmlns="http://www.w3.org/2000/svg" xmlns:xlink="http://www.w3.org/1999/xlink" x="0px" y="0px" viewBox="0 0 512 512" style="width: 256px; height: 256px; opacity: 1;" xml:space="preserve">
<style type="text/css">
	.st0{fill:#4B4B4B;}
</style>
<g>
	<path class="st0" d="M118.045,112.383c21.486,0,38.911-17.417,38.911-38.904c0-21.494-17.425-38.919-38.911-38.919
		c-21.494,0-38.919,17.425-38.919,38.919C79.126,94.966,96.551,112.383,118.045,112.383z" style="fill: rgb(234, 234, 234);"></path>
	<path class="st0" d="M227.179,37.192h253.415v206.256H227.179v-17.222c-3.312-0.055-6.631-0.344-9.888-0.937l-1.062-0.195
		l-10.692-2.96v42.957h296.709v-10.826V15.55H205.536v103.644l21.643,7.568V37.192z" style="fill: rgb(234, 234, 234);"></path>
	<path class="st0" d="M233.724,358.683c0,21.486,17.417,38.911,38.919,38.911c21.486,0,38.911-17.425,38.911-38.911
		c0-21.494-17.425-38.911-38.911-38.911C251.141,319.772,233.724,337.189,233.724,358.683z" style="fill: rgb(234, 234, 234);"></path>
	<path class="st0" d="M272.643,417.042c-36.498,0-68.919,12.169-77.002,52.634l0.648,26.774h152.708l0.64-26.774
		C341.554,429.211,309.133,417.042,272.643,417.042z" style="fill: rgb(234, 234, 234);"></path>
	<path class="st0" d="M396.079,358.683c0,21.486,17.425,38.911,38.919,38.911c21.486,0,38.911-17.425,38.911-38.911
		c0-21.494-17.425-38.911-38.911-38.911C413.504,319.772,396.079,337.189,396.079,358.683z" style="fill: rgb(234, 234, 234);"></path>
	<path class="st0" d="M434.998,417.042c-36.498,0-68.919,12.169-77.003,52.634l0.648,26.774h152.708L512,469.676
		C503.909,429.211,471.495,417.042,434.998,417.042z" style="fill: rgb(234, 234, 234);"></path>
	<path class="st0" d="M245.776,197.805l62.795-30.047c8.474-3.585,12.442-13.348,8.857-21.83
		c-3.577-8.474-13.348-12.434-21.822-8.857l-56.461,19.292l-51.088-17.862c-7.451-2.608-15.183-4.296-23.017-5.053l-34.436,53.087
		v-28.422H109.61v28.625l-38.568-46.55c-20.736,8.575-36.451,24.805-42.051,52.822L0.405,312.344
		c-2.008,8.99,3.648,17.886,12.637,19.893c8.974,2.007,17.87-3.656,19.877-12.629l30.07-79.51l7.78,236.615
		c0,10.903,8.833,19.737,19.736,19.737c10.911,0,19.745-8.834,19.745-19.737l7.849-141.102l7.826,141.102
		c0,10.903,8.85,19.737,19.745,19.737c10.904,0,19.744-8.834,19.744-19.737l11.106-287.516l45.074,12.489
		C229.858,203.194,238.395,201.819,245.776,197.805z" style="fill: rgb(234, 234, 234);"></path>
	<rect x="109.61" y="134.197" class="st0" width="20.994" height="14.715" style="fill: rgb(234, 234, 234);"></rect>
</g>
</svg>
