<!--?xml version="1.0" encoding="utf-8"?-->
<!-- Generator: Adobe Illustrator 15.1.0, SVG Export Plug-In . SVG Version: 6.00 Build 0)  -->

<svg version="1.1" id="_x32_" xmlns="http://www.w3.org/2000/svg" xmlns:xlink="http://www.w3.org/1999/xlink" x="0px" y="0px" width="512px" height="512px" viewBox="0 0 512 512" style="enable-background:new 0 0 512 512;" xml:space="preserve">
<style type="text/css">

	.st0{fill:#4B4B4B;}

</style>
<g>
	<path class="st0" d="M467.594,111.844c-4.563-6.656-9.344-13.047-14.469-19.203C406.156,36,335.281,0,256,0
		S105.844,36,58.875,92.641c-5.125,6.156-9.906,12.547-14.469,19.203C16.406,152.875,0,202.469,0,256
		c0,53.438,16.406,103.031,44.313,144.078c4.563,6.641,9.375,13.047,14.5,19.203C105.75,475.906,176.641,512,256,512
		s150.25-36.094,197.203-92.719c5.109-6.156,9.922-12.563,14.484-19.203C495.594,359.031,512,309.438,512,256
		C512,202.469,495.594,152.875,467.594,111.844z M463.5,269.063l-75.875,11.594c0,0-18.344,48.156-2.656,54.422
		c53.328,21.344,16,60.422-21.344,77.344c-16.719,7.578-13.641,18.234-2.031,22.609C330.625,453.406,294.531,464,256,464
		c-62.641,0-118.797-27.844-156.969-71.766c-5.344-6.078-10.313-12.547-14.953-19.266C67.703,349,56.344,321.406,51.188,291.75
		c7.047-6.688,15.156-12.938,22.281-17.688c17.125-11.438,48.547-28.563,48.547-74.266c0-45.688,31.422-42.828,31.422-42.828h14.281
		l-12.094,28.781l29.344-2.656l25.594-46.125l51.406-25.703c0,0,32.328-42.844,0-42.828c-7.969,0-63.031,0-95.719,0
		C193.438,55.375,223.875,48,256,48c39.469,0,76.469,11.094,107.953,30.313c-5.328-0.938-10.734-1.641-16.328-1.891L305,81.781
		v39.938l30.219,1.578c21.281,1.109,38.906,16.859,42.375,37.859l7.375,44.375l77.344,44.75l1.688,5.766
		C464,260.422,463.766,264.75,463.5,269.063z" style="fill: rgb(234, 234, 234);"></path>
	<polygon class="st0" points="218.203,338.563 218.203,348.125 188.984,348.125 188.984,335.75 147.406,366.094 147.406,407.125 
		206.406,407.125 213.719,419.5 237.875,419.5 255.859,402.063 255.859,371.156 227.203,338.563 	" style="fill: rgb(234, 234, 234);"></polygon>
	<path class="st0" d="M160.828,297.281c-2.984,0-5.422,2.813-5.422,6.281v2.922c0,3.453,2.438,6.281,5.422,6.281h11.391
		c3,0,5.438-2.828,5.438-6.281v-2.922c0-3.469-2.438-6.281-5.438-6.281H160.828z" style="fill: rgb(234, 234, 234);"></path>
	<path class="st0" d="M141.719,282.016H128h-0.938c-3,0-5.438,2.828-5.438,6.297V297c0,3.469,1.406,6.281,3.797,6.281h0.594
		c2.578,0,1.984,2.813,1.984,6.313v4.063c0,3.469,2.438,6.281,5.438,6.281h8.281c3,0,5.406-2.813,5.406-6.281v-10.375v-14.969
		C147.125,284.844,144.719,282.016,141.719,282.016z" style="fill: rgb(234, 234, 234);"></path>
	<path class="st0" d="M147.781,272.531h1.094c3,0,5.438,2.828,5.438,6.313v3.125c0,3.469,2.438,6.281,5.422,6.281h42.016
		c2.563,0,4.75-2.063,5.313-4.938l8.781-46.594c0.344-1.875-0.047-3.813-1.078-5.297s-2.578-2.359-4.234-2.359h-15.188
		c-2.547,0-4.75,2.063-5.281,4.969l-3.031,16.203c-0.547,2.891-2.75,4.969-5.313,4.969h-33.938c-3,0-5.438,2.797-5.438,6.281v4.766
		C142.344,269.719,144.781,272.531,147.781,272.531z" style="fill: rgb(234, 234, 234);"></path>
	<path class="st0" d="M199.875,220.516h23.563c2.625,0,4.844-2.141,5.344-5.109l3.406-20.719c0.297-1.844-0.125-3.75-1.156-5.188
		s-2.563-2.281-4.188-2.281h-23.563c-2.594,0-4.844,2.156-5.328,5.125l-3.406,20.703c-0.297,1.828,0.109,3.734,1.156,5.188
		C196.719,219.688,198.25,220.516,199.875,220.516z" style="fill: rgb(234, 234, 234);"></path>
</g>
</svg>
