<!--?xml version="1.0" encoding="utf-8"?-->
<!-- Generator: Adobe Illustrator 18.1.1, SVG Export Plug-In . SVG Version: 6.00 Build 0)  -->

<svg version="1.1" id="_x32_" xmlns="http://www.w3.org/2000/svg" xmlns:xlink="http://www.w3.org/1999/xlink" x="0px" y="0px" viewBox="0 0 512 512" style="width: 256px; height: 256px; opacity: 1;" xml:space="preserve">
<style type="text/css">
	.st0{fill:#4B4B4B;}
</style>
<g>
	<path class="st0" d="M381.267,153.694c-23.762,0-46.038,6.338-65.239,17.409c-0.27,0.16-0.539,0.336-0.808,0.495
		c-0.066-0.167-0.124-0.327-0.19-0.495C290.809,111.152,232.06,68.859,163.44,68.859C73.172,68.859,0,142.032,0,232.293
		c0,59.711,32.037,111.94,79.845,140.451v57.918c0,0,75.933-4.349,160.57-54.167c6.44-3.438,12.624-7.306,18.51-11.546
		c4.043-2.914,7.94-6.009,11.684-9.273c0.226-0.19,0.43-0.386,0.656-0.568c0.116,0.182,0.233,0.379,0.35,0.568
		c8.836,13.592,20.134,25.43,33.268,34.892c4.714,3.395,9.652,6.476,14.802,9.244c67.709,39.838,128.454,43.328,128.454,43.328
		v-46.33C486.396,373.996,512,332.213,512,284.442C512,212.231,453.477,153.694,381.267,153.694z M278.119,292.163
		c-5.966,11.401-13.673,21.905-22.749,31.076c-5.062,5.121-10.555,9.826-16.382,14.051c-4.662,3.358-9.601,6.432-14.656,9.15
		l-0.612,0.321l-0.598,0.356c-39.445,23.209-76.727,35.424-101.064,41.573c-2.805,0.714-5.515,1.37-8.115,1.952v-37.253
		l-16.63-9.921c-18.918-11.291-34.776-27.324-45.834-46.366c-11.363-19.581-17.38-41.994-17.38-64.809
		c0-34.543,13.454-67.032,37.879-91.456c24.432-24.424,56.914-37.879,91.463-37.879c34.543,0,67.024,13.454,91.449,37.879
		c14.875,14.876,25.685,32.737,31.862,52.23c3.97,12.522,6.017,25.721,6.017,39.226
		C292.768,253.439,287.844,273.581,278.119,292.163z M417.478,256.863c5.783,0,10.452,4.677,10.452,10.454
		c0,5.769-4.669,10.453-10.452,10.453c-5.77,0-10.439-4.684-10.439-10.453C407.039,261.54,411.708,256.863,417.478,256.863z
		 M350.286,256.863c5.784,0,10.454,4.677,10.454,10.454c0,5.769-4.67,10.453-10.454,10.453c-5.769,0-10.438-4.684-10.438-10.453
		C339.847,261.54,344.517,256.863,350.286,256.863z M418.396,319.574c-10.016,7.219-22.305,11.466-35.584,11.466
		c-20.761,0-39.088-10.387-50.081-26.238h100.161C428.929,310.506,424.019,315.51,418.396,319.574z" style="fill: rgb(234, 234, 234);"></path>
	<path class="st0" d="M120.157,232.482c7.684,0,13.905-6.228,13.905-13.914c0-7.685-6.221-13.913-13.905-13.913
		c-7.693,0-13.92,6.228-13.92,13.913C106.236,226.254,112.464,232.482,120.157,232.482z" style="fill: rgb(234, 234, 234);"></path>
	<path class="st0" d="M209.602,232.482c7.678,0,13.913-6.228,13.913-13.914c0-7.685-6.235-13.913-13.913-13.913
		c-7.685,0-13.92,6.228-13.92,13.913C195.682,226.254,201.917,232.482,209.602,232.482z" style="fill: rgb(234, 234, 234);"></path>
	<path class="st0" d="M163.44,303.41c17.679,0,34.048-5.667,47.371-15.275c7.503-5.405,14.03-12.063,19.304-19.66H96.766
		C111.4,289.578,135.803,303.41,163.44,303.41z" style="fill: rgb(234, 234, 234);"></path>
</g>
</svg>
